<svg width="28" height="22" viewBox="0 0 28 22" fill="none" xmlns="http://www.w3.org/2000/svg">
<g clip-path="url(#clip0_2068_276)">
<path d="M14.7358 21.5C14.5576 21.5 14.3795 21.5 14.2044 21.5C11.5288 21.4786 8.81018 21.3622 6.18067 21.249L4.80141 21.1908C3.76005 21.148 2.90607 20.9 2.1934 20.4347C1.32099 19.8653 0.768055 19.0296 0.454725 17.799C0.144467 16.5837 0.107605 15.3194 0.0707425 14.0949L0.058455 13.6571C-0.0183415 11.3765 -0.0644194 8.37959 0.236623 5.38878C0.365641 4.09388 0.709689 3.13265 1.31792 2.36122C2.02752 1.4551 2.92757 0.946939 3.98736 0.842857C5.59087 0.686735 7.03465 0.597959 8.39855 0.573469C10.9789 0.52449 13.077 0.5 14.9969 0.5C15.7587 0.5 16.5236 0.503061 17.2854 0.512245C19.4173 0.533673 21.5308 0.659184 23.5766 0.781633C24.9497 0.864286 26.0402 1.43367 26.8174 2.47755C27.2567 3.06837 27.5362 3.79388 27.6499 4.63265C27.7482 5.36735 27.8066 6.12041 27.8649 6.84898C27.8895 7.16429 27.9141 7.47653 27.9417 7.79184C27.9571 7.95408 27.9694 8.11939 27.9817 8.28163L27.997 8.47143V13.5684L27.9632 14.0949C27.9387 14.4806 27.9141 14.8694 27.8895 15.2551C27.8342 16.1582 27.7697 16.9694 27.5577 17.7837C27.057 19.7153 25.9358 20.8051 24.1326 21.1143C23.3647 21.2459 22.5783 21.2735 21.8164 21.298C21.1898 21.3194 20.5662 21.3439 19.9395 21.3684C18.2316 21.4357 16.4653 21.5031 14.7327 21.5031L14.7358 21.5ZM14.6191 1.84694C13.8112 1.86531 13.0616 1.88367 12.352 1.89898C10.7792 1.93265 9.42456 1.96327 8.06065 2.00918C6.61073 2.05816 5.49872 2.12245 4.45429 2.21429C3.2194 2.32449 2.39614 2.9551 1.99987 4.08163C1.69883 4.94184 1.61282 5.82041 1.56674 6.64082C1.39471 9.65612 1.39779 12.5857 1.57595 15.3469C1.61896 16.0112 1.7234 16.7306 1.90157 17.6061C2.01216 18.151 2.24869 18.598 2.59888 18.9316C3.06273 19.3755 3.66175 19.6265 4.42971 19.7C5.29598 19.7827 6.31583 19.8714 7.34491 19.9112C9.87919 20.0122 12.1954 20.0612 14.4317 20.0612C16.668 20.0612 18.6709 20.0153 20.6491 19.9204H20.6921C21.7274 19.8684 22.7964 19.8194 23.8408 19.7C24.8668 19.5837 25.5795 19.0265 25.9604 18.05C26.3229 17.1194 26.4058 16.1582 26.458 15.252C26.6024 12.7908 26.6178 10.2592 26.5041 7.72755C26.498 7.56531 26.4918 7.40306 26.4857 7.24082C26.4519 6.28878 26.415 5.30612 26.1293 4.35714C25.9634 3.80306 25.7331 3.23673 25.2016 2.82959C24.6579 2.41327 23.9913 2.20204 23.1005 2.16837C20.8304 2.07653 18.5603 1.99082 16.5482 1.91735L14.6283 1.84694H14.6252H14.6191Z" fill="white"/>
<path d="M11.5256 15.0806C10.9328 15.0806 10.5334 14.6092 10.5334 13.9051C10.5334 13.1643 10.5334 12.4235 10.5334 11.6827V9.70511C10.5334 8.95511 10.5334 8.20511 10.5334 7.45817C10.5334 6.77858 10.945 6.30103 11.5318 6.30103C11.7407 6.30103 11.9557 6.35919 12.1707 6.47858C13.2612 7.06939 14.3487 7.66327 15.4361 8.25715C16.3515 8.75613 17.2639 9.25511 18.1793 9.75409C18.6124 9.9898 18.8244 10.3051 18.8274 10.7214C18.8274 11.1439 18.6124 11.4653 18.1639 11.7041C17.2362 12.2 16.3116 12.6959 15.3839 13.1918C14.3149 13.7643 13.2459 14.3367 12.1769 14.9061C11.9557 15.0225 11.7376 15.0837 11.5256 15.0837V15.0806ZM11.9803 13.3847L16.9597 10.7184L11.9803 8.00307V13.3847Z" fill="white"/>
</g>
<defs>
<clipPath id="clip0_2068_276">
<rect width="28" height="21" fill="white" transform="translate(0 0.5)"/>
</clipPath>
</defs>
</svg>
